<?xml version="1.0" encoding="utf-8"?>
<svg width="23px" height="6px" viewBox="0 0 23 6" version="1.1" xmlns:xlink="http://www.w3.org/1999/xlink" xmlns="http://www.w3.org/2000/svg">
  <g id="Group-18">
    <path d="M2.875 0C1.29375 0 0 1.35 0 3C0 4.65 1.29375 6 2.875 6C4.45625 6 5.75 4.65 5.75 3C5.75 1.35 4.45625 0 2.875 0Z" id="Path" fill="#5387C4" stroke="none" />
    <path d="M20.125 0C18.5438 0 17.25 1.35 17.25 3C17.25 4.65 18.5438 6 20.125 6C21.7062 6 23 4.65 23 3C23 1.35 21.7062 0 20.125 0Z" id="Path" fill="#5387C4" stroke="none" />
    <path d="M11.5 0C9.91875 0 8.625 1.35 8.625 3C8.625 4.65 9.91875 6 11.5 6C13.0812 6 14.375 4.65 14.375 3C14.375 1.35 13.0812 0 11.5 0Z" id="Path" fill="#5387C4" stroke="none" />
  </g>
</svg>